<svg xmlns="http://www.w3.org/2000/svg" width="594.72009pt" height="150pt" viewBox="0 0 594.72011 149.99999"><path fill="#ff143d" d="M271.344 4.418h49.603v139.08h-49.603ZM0 45.915h35.657v97.583h47.979V45.915H119.3V4.418H0ZM213.497 4.418 183.8 96.69c-.88 2.745-4.942 2.112-4.942-.778V4.418H131.69v139.08h86.586L265.29 4.418Zm205.246 0v58.103c0 2.677-3.608 3.523-4.797 1.129L384.608 4.418h-46.875v139.08h45.584V85.71c0-2.676 3.609-3.523 4.797-1.12l29.193 58.907h46.884V4.418Zm103.482 83.56V57.603c0-7.695 3.062-13.356 10.441-15.28 7.901-2.06 15.195 2.967 17.675 11.193l43.626-23.352C576.771-1.191 544.603-.772 531.734.365c-13.177 1.172-26.679 5.148-38.624 15.375-11.929 10.192-17.564 26.832-17.564 44.378l-.008 27.397c0 26.106 10.287 43.516 28.081 53.691 30.664 17.546 73.692 5.584 91.101-7.661V66.787h-45.046v41.668c-6.387 2.48-27.448 5.328-27.448-20.479" style="stroke-width:8.55084"/></svg>