<svg xmlns="http://www.w3.org/2000/svg" xml:space="preserve" x="0px" y="0px" style="enable-background:new 0 0 629.50232 79.83447" viewBox="0 0 629.50232 79.83447"><path d="M111.669 12.464a14.285 14.285 0 0 0-10.083-10.082C92.69 0 57.011 0 57.011 0s-35.65 0-44.547 2.382A14.285 14.285 0 0 0 2.382 12.464C0 21.361 0 39.917 0 39.917S0 58.474 2.382 67.37a14.285 14.285 0 0 0 10.082 10.083c8.897 2.381 44.561 2.381 44.561 2.381s35.665 0 44.561-2.381A14.285 14.285 0 0 0 111.67 67.37c2.382-8.896 2.382-27.453 2.382-27.453s0-18.556-2.382-27.453z" class="st0" style="fill:red"/><path d="m45.618 57.025 29.633-17.108L45.618 22.81v34.216z" class="st1" style="fill:#fff"/><path d="M405.433 25.333v2.759c0 13.793-6.115 21.853-19.49 21.853h-2.036v24.138h-10.924v-68.4h13.926c12.736 0 18.524 5.384 18.524 19.65zm-11.494.98c0-9.95-1.793-12.313-7.99-12.313h-2.038v27.807h1.876c5.872 0 8.157-4.24 8.157-13.453l-.005-2.041zm37.343-3.016-.57 12.965c-4.649-.98-8.483-.244-10.194 2.759v35.062h-10.841V24.11h8.644l.979 10.833h.41c1.14-7.909 4.808-11.904 9.54-11.904.684.02 1.364.106 2.032.258zm12.473 29.577v2.528c0 8.81.488 11.826 4.24 11.826 3.585 0 4.404-2.759 4.482-8.479l9.701.57c.736 10.764-4.892 15.573-14.432 15.573-11.577 0-15.002-7.582-15.002-21.361v-8.736c0-14.515 3.834-21.609 15.328-21.609 11.577 0 14.515 6.032 14.515 21.117v8.57h-18.832zm0-10.276v3.586h8.235V42.62c0-9.196-.653-11.826-4.138-11.826s-4.097 2.695-4.097 11.826v-.023zm74.855-6.276v37.752H507.37V37.159c0-4.079-1.062-6.115-3.508-6.115-1.959 0-3.752 1.14-4.975 3.26.07.676.098 1.356.083 2.036v37.752h-11.26V37.159c0-4.079-1.062-6.115-3.508-6.115-1.958 0-3.678 1.14-4.892 3.181v39.872h-11.25V24.11h8.887l.998 6.364h.16c2.53-4.81 6.607-7.421 11.417-7.421 4.73 0 7.42 2.363 8.643 6.607 2.612-4.322 6.525-6.607 11.007-6.607 6.832 0 9.44 4.892 9.44 13.269zm5.628-25.012c0-5.384 1.959-6.928 6.115-6.928 4.239 0 6.115 1.793 6.115 6.928 0 5.545-1.876 6.934-6.115 6.934-4.156-.005-6.115-1.389-6.115-6.934zm.653 12.8h10.763v49.987h-10.763V24.11zm47.535 0v49.987h-8.804l-.98-6.115h-.243c-2.529 4.892-6.198 6.928-10.763 6.928-6.685 0-9.706-4.239-9.706-13.453V24.11h11.25v36.695c0 4.404.92 6.197 3.182 6.197a5.559 5.559 0 0 0 4.8-3.181V24.11h11.264zm57.076 12.212v37.752h-11.25V37.159c0-4.079-1.062-6.115-3.508-6.115-1.959 0-3.752 1.14-4.975 3.26.07.67.097 1.344.083 2.018v37.752h-11.25V37.159c0-4.079-1.063-6.115-3.509-6.115-1.959 0-3.678 1.14-4.892 3.181v39.872h-11.25V24.11h8.878l.979 6.359h.16c2.53-4.81 6.608-7.42 11.417-7.42 4.731 0 7.42 2.362 8.644 6.606 2.611-4.322 6.524-6.607 11.007-6.607 6.873.005 9.466 4.897 9.466 13.274z" class="st2" style="fill:#282828"/><g style="fill:#282828"><path d="M165.543 72.573c-2.257-1.521-3.861-3.887-4.812-7.095-.952-3.208-1.427-7.476-1.427-12.805v-7.259c0-5.383.542-9.706 1.63-12.968 1.088-3.262 2.786-5.64 5.098-7.136 2.31-1.495 5.342-2.243 9.094-2.243 3.697 0 6.66.762 8.89 2.284 2.229 1.522 3.86 3.902 4.893 7.136 1.033 3.235 1.55 7.544 1.55 12.927v7.259c0 5.33-.503 9.611-1.509 12.845-1.006 3.236-2.638 5.601-4.893 7.096-2.257 1.495-5.316 2.243-9.176 2.243-3.97 0-7.083-.762-9.338-2.284zm12.642-7.83c.624-1.63.937-4.294.937-7.992V41.173c0-3.589-.313-6.211-.937-7.87-.626-1.659-1.728-2.488-3.304-2.488-1.523 0-2.597.83-3.221 2.487-.626 1.66-.938 4.282-.938 7.87v15.579c0 3.698.298 6.362.897 7.992.598 1.632 1.684 2.447 3.262 2.447 1.576 0 2.678-.815 3.304-2.447zM338.77 52.792v2.528c0 3.209.094 5.615.285 7.218.19 1.605.583 2.773 1.183 3.507.598.734 1.521 1.102 2.773 1.102 1.684 0 2.84-.653 3.466-1.958.624-1.305.964-3.48 1.02-6.525l9.705.57c.054.437.082 1.035.082 1.795 0 4.623-1.265 8.075-3.793 10.358-2.528 2.284-6.104 3.426-10.725 3.426-5.546 0-9.434-1.74-11.663-5.22-2.23-3.479-3.344-8.862-3.344-16.149v-8.727c0-7.503 1.155-12.98 3.466-16.434 2.311-3.452 6.267-5.18 11.867-5.18 3.86 0 6.823.708 8.89 2.121 2.066 1.415 3.52 3.617 4.364 6.606.842 2.991 1.264 7.125 1.264 12.398v8.564h-18.84zm1.427-21.043c-.57.707-.952 1.863-1.142 3.466-.191 1.605-.285 4.038-.285 7.3v3.589h8.237v-3.589c0-3.207-.11-5.64-.326-7.3-.218-1.658-.611-2.826-1.183-3.507-.57-.679-1.455-1.02-2.65-1.02-1.197 0-2.08.355-2.651 1.061zM138.136 51.855 125.33 5.611h11.173l4.486 20.961c1.142 5.166 1.984 9.57 2.528 13.212h.327c.38-2.61 1.223-6.986 2.528-13.13l4.649-21.043h11.174l-12.968 46.244v22.186h-11.092V51.855zM226.8 24.045v49.996h-8.809l-.979-6.117h-.244c-2.394 4.622-5.982 6.932-10.766 6.932-3.317 0-5.764-1.087-7.34-3.262-1.578-2.174-2.366-5.573-2.366-10.195V24.045h11.255v36.702c0 2.23.245 3.82.734 4.771.49.952 1.305 1.427 2.447 1.427.98 0 1.917-.298 2.814-.897.897-.598 1.563-1.358 1.998-2.284V24.045H226.8zM284.532 24.045v49.996h-8.809l-.979-6.117h-.244c-2.394 4.622-5.982 6.932-10.766 6.932-3.317 0-5.764-1.087-7.34-3.262-1.578-2.174-2.366-5.573-2.366-10.195V24.045h11.256v36.702c0 2.23.244 3.82.733 4.771.49.952 1.305 1.427 2.447 1.427.98 0 1.917-.298 2.814-.897.898-.598 1.563-1.358 1.999-2.284V24.045h11.255z" class="st2"/><path d="M257.384 14.666H246.21V74.04H235.2V14.666h-11.174V5.612h33.358v9.054zM321.782 32.037c-.68-3.153-1.781-5.436-3.303-6.85-1.523-1.414-3.617-2.121-6.28-2.121-2.067 0-3.997.585-5.79 1.753a11.918 11.918 0 0 0-4.16 4.609h-.083l.001-26.344H291.32V74.04h9.297l1.142-4.73h.245c.869 1.686 2.174 3.017 3.915 3.997 1.74.978 3.67 1.467 5.79 1.467 3.806 0 6.607-1.753 8.401-5.26 1.794-3.507 2.692-8.984 2.692-16.434v-7.912c0-5.599-.34-9.976-1.02-13.13zM311.465 52.43c0 3.644-.15 6.498-.449 8.564-.3 2.067-.802 3.535-1.509 4.404-.707.87-1.659 1.305-2.854 1.305a5.217 5.217 0 0 1-2.57-.652c-.788-.435-1.427-1.087-1.916-1.958V35.71c.38-1.358 1.032-2.473 1.958-3.343.923-.87 1.929-1.305 3.017-1.305 1.142 0 2.025.448 2.65 1.345s1.061 2.406 1.306 4.527c.245 2.12.367 5.138.367 9.053v6.443z" class="st2"/></g></svg>